<mxfile host="app.diagrams.net" modified="2024-02-08T08:58:21.455Z" agent="Mozilla/5.0 (Macintosh; Intel Mac OS X 10_15_7) AppleWebKit/537.36 (KHTML, like Gecko) Chrome/121.0.0.0 Safari/537.36" version="23.1.1" etag="l-4chlGdLvWbAcQoIBQy" type="github">
  <diagram name="Страница — 1" id="GFIV9uUKotbXmpAHeybV">
    <mxGraphModel>
      <root>
        <mxCell id="0" />
        <mxCell id="1" parent="0" />
      </root>
    </mxGraphModel>
  </diagram>
</mxfile>
